<?xml version="1.0" encoding="UTF-8"?>
<svg width="121px" height="43px" viewBox="0 0 121 43" version="1.1" xmlns="http://www.w3.org/2000/svg" xmlns:xlink="http://www.w3.org/1999/xlink">
    <title>#LOGO</title>
    <g id="HOME" stroke="none" stroke-width="1" fill="none" fill-rule="evenodd">
        <g id="HOME_PAGE" transform="translate(-50.000000, -22.000000)" fill="#FFFFFF">
            <g id="HEADER" transform="translate(0.000000, -0.000000)">
                <g id="Group" transform="translate(50.000000, 22.000000)">
                    <g id="LOGO-DEF" transform="translate(0.000000, 0.396396)">
                        <g id="Group-11" transform="translate(0.000000, 0.205206)">
                            <path d="M16.2829728,24.8125751 C14.9858208,27.7257081 12.0053088,29.7637881 8.5340448,29.7637881 C6.2084448,29.7637881 4.1025888,28.8490638 2.5753248,27.3689514 L0.5944608,29.2957232 C2.6280288,31.269587 5.4343008,32.4899805 8.5340448,32.4899805 C13.1725728,32.4899805 17.1538848,29.756653 18.8726688,25.8563027 L16.2829728,24.8125751 Z" id="Fill-1"></path>
                            <path d="M20.3287392,10.0990988 L18.4512672,11.9256934 C20.9804832,14.3910253 22.5448992,17.7939139 22.5448992,21.5524177 C22.5448992,25.3637215 20.9352672,28.8074231 18.3432672,31.2807464 L20.2218912,33.1090534 C23.2942752,30.1676653 25.1999712,26.077235 25.1999712,21.5524177 C25.1999712,17.0812566 23.3392032,13.0319248 20.3287392,10.0990988" id="Fill-3"></path>
                            <path d="M8.6677056,0.0801989189 C5.7142656,0.0801989189 2.7614016,0.653863784 5.76e-05,1.80176432 L1.0192896,4.15892757 C3.4551936,3.14402595 6.0618816,2.63657514 8.6679936,2.63657514 C13.6348416,2.63657514 18.5999616,4.47915243 22.3897536,8.16544865 C24.2591616,9.98405189 25.6666176,12.0809254 26.6138496,14.3196454 L29.0457216,13.3501232 C27.9709056,10.8068757 26.3716416,8.42374054 24.2479296,6.35769081 C19.9457856,2.17279135 14.3064576,0.0801989189 8.6677056,0.0801989189" id="Fill-5"></path>
                            <path d="M35.4128832,11.8665574 L39.8765952,11.8665574 C44.8782912,11.8665574 48.9612672,13.3957596 47.6750592,19.2811044 C46.3891392,25.1661639 41.6382912,26.6956515 36.6363072,26.6956515 L32.1725952,26.6956515 L35.4128832,11.8665574 Z M35.9551872,24.3590374 L37.7779392,24.3590374 C40.5122112,24.3590374 43.5572352,22.5101812 44.2628352,19.2811044 C44.9684352,16.0520277 42.7315392,14.2031715 39.9969792,14.2031715 L38.1739392,14.2031715 L35.9551872,24.3590374 Z" id="Fill-7"></path>
                            <path d="M56.5093152,15.4991974 C60.0854112,15.4991974 62.3416032,17.6874006 61.5524832,21.2994915 C60.8653152,24.4435174 58.0043232,26.9508039 54.0071712,26.9508039 C50.0347872,26.9508039 48.2681952,24.4435174 48.9553632,21.2994915 C49.7444832,17.6874006 52.9568352,15.4991974 56.5093152,15.4991974 M54.4904352,24.7411952 C56.8978272,24.7411952 57.9553632,22.7864536 58.3548192,20.9595736 C58.7214432,19.2811044 58.0832352,17.7090915 56.0269152,17.7090915 C53.9930592,17.7090915 52.6584672,19.3236298 52.3016352,20.9595736 C51.9070752,22.765619 52.1060832,24.7411952 54.4904352,24.7411952" id="Fill-9"></path>
                        </g>
                        <polygon id="Fill-12" points="65.1969792 12.6074128 68.3289792 12.6074128 65.2059072 26.9010863 62.0741952 26.9010863"></polygon>
                        <g id="Group-17" transform="translate(67.968000, 15.617098)">
                            <path d="M7.758288,0.0873055135 C11.334384,0.0873055135 13.590288,2.27550876 12.801168,5.88759957 C12.114,9.03162551 9.25272,11.538912 5.256144,11.538912 C1.283184,11.538912 -0.482544,9.03162551 0.204336,5.88759957 C0.993168,2.27550876 4.205808,0.0873055135 7.758288,0.0873055135 M5.738832,9.32930335 C8.146224,9.32930335 9.204048,7.37456173 9.603216,5.54768173 C9.970128,3.86921254 9.33192,2.29719957 7.2756,2.29719957 C5.241744,2.29719957 3.907728,3.91173795 3.55032,5.54768173 C3.15576,7.35372714 3.354768,9.32930335 5.738832,9.32930335" id="Fill-13"></path>
                            <path d="M15.510096,0.342543568 L18.43128,0.342543568 L18.096624,1.87231654 L18.144144,1.87231654 C19.417968,0.533479784 20.940624,0.0873911351 22.110192,0.0873911351 C23.7924,0.0873911351 24.858576,0.661341405 25.2396,2.02072735 C26.252208,0.703866811 27.95256,0.0873911351 29.424528,0.0873911351 C32.392368,0.0873911351 32.830128,1.93539114 32.296176,4.37903222 L30.787632,11.2841306 L27.65592,11.2841306 L29.080944,4.76176086 C29.304144,3.74143654 29.619504,2.29671438 27.819792,2.29671438 C25.740144,2.29671438 24.990768,4.54884843 24.679728,5.97216519 L23.519088,11.2841306 L20.387376,11.2841306 L21.812688,4.76176086 C22.0356,3.74143654 22.35096,2.29671438 20.551536,2.29671438 C18.4716,2.29671438 17.721936,4.54884843 17.411472,5.97216519 L16.250256,11.2841306 L13.118832,11.2841306 L15.510096,0.342543568 Z" id="Fill-15"></path>
                        </g>
                        <path d="M103.935226,12.6030746 L107.067226,12.6030746 L106.62313,14.6351611 L103.491418,14.6351611 L103.935226,12.6030746 Z M103.201978,15.9597276 L106.33369,15.9597276 L103.943002,26.9010292 L100.811002,26.9010292 L103.201978,15.9597276 Z" id="Fill-18"></path>
                        <path d="M116.964259,12.6031602 L116.520163,14.6352467 L119.652163,14.6352467 L120.095971,12.6031602 L116.964259,12.6031602 Z M116.230723,15.9598132 L113.840035,26.9011148 L116.971747,26.9011148 L119.362435,15.9598132 L116.230723,15.9598132 Z" id="Fill-19"></path>
                        <g id="Group-32" transform="translate(69.984000, 12.477639)">
                            <path d="M39.1703904,0.129773838 L42.3055584,0.113791135 L41.5697184,3.48186032 L44.3509344,3.48186032 L43.8956064,5.56446357 L41.1143904,5.56446357 L40.0009824,10.6626603 C39.7965024,11.597363 39.8863584,12.4687057 41.0783904,12.4687057 C41.6391264,12.4687057 42.2001504,12.3622495 42.5690784,12.1713133 L42.1701984,14.4234474 C41.4787104,14.5926928 40.7356704,14.6783144 39.8005344,14.6783144 C37.3464864,14.6783144 36.2932704,13.2972376 36.7667424,11.129869 L39.1703904,0.129773838 Z" id="Fill-20"></path>
                            <path d="M1.6749792,19.5626283 L3.6469152,19.5626283 L3.4309152,20.5509872 L3.4620192,20.5509872 C4.2963552,19.7184597 5.2525152,19.3930975 6.3394272,19.3930975 C8.2338912,19.3930975 8.7920352,20.6074975 8.4340512,22.2454391 L7.4312352,26.833331 L5.3501472,26.833331 L6.1988832,22.9512467 C6.3927072,22.0616381 6.6398112,20.8615083 5.3040672,20.8615083 C3.7981152,20.8615083 3.1478112,22.343904 2.9439072,23.2760381 L2.1665952,26.833331 L0.0857952,26.833331 L1.6749792,19.5626283 Z" id="Fill-22"></path>
                            <path d="M15.947712,26.4238884 C15.103296,26.8051901 14.190336,27.002976 13.072608,27.002976 C10.432512,27.002976 9.197856,25.6193306 9.718848,23.2333414 C10.179072,21.1296182 11.784672,19.3937825 14.269536,19.3937825 C17.23536,19.3937825 17.669952,21.2426387 17.1144,23.7841738 L11.586528,23.7841738 C11.423808,24.955763 12.179232,25.6193306 13.468032,25.6193306 C14.47776,25.6193306 15.42096,25.2805544 16.283808,24.8852679 L15.947712,26.4238884 Z M15.411168,22.4852938 C15.54912,21.5674301 15.256224,20.7765717 14.091264,20.7765717 C12.92688,20.7765717 12.176064,21.5112052 11.870208,22.4852938 L15.411168,22.4852938 Z" id="Fill-24"></path>
                            <path d="M19.5846912,19.5626283 L21.4327872,19.5626283 L21.0719232,21.2142694 L21.1033152,21.2142694 C21.3443712,20.5372878 22.4476992,19.3930975 23.6901312,19.3930975 C23.8925952,19.3930975 24.1097472,19.3930975 24.3145152,19.4498932 L23.8983552,21.3558305 C23.7333312,21.2567948 23.3730432,21.2008554 23.0000832,21.2008554 C21.3075072,21.2008554 20.8881792,23.1204921 20.6600832,24.1653613 L20.0763072,26.833331 L17.9955072,26.833331 L19.5846912,19.5626283 Z" id="Fill-26"></path>
                            <path d="M32.9595552,19.5626854 L31.5247392,26.1275805 C31.0933152,28.104013 29.8163232,29.9674249 26.4619872,29.9674249 C25.6391712,29.9674249 24.7158432,29.8546897 23.8057632,29.4736735 L24.3281952,27.863987 C24.8972832,28.1747935 25.8666912,28.4992995 26.5184352,28.4992995 C28.8172512,28.4992995 29.2679712,26.9321384 29.5427232,25.6757838 L29.5119072,25.6757838 C28.9877472,26.2971114 27.9385632,26.8333881 26.7738912,26.8333881 C24.4137312,26.8333881 23.8895712,25.1109665 24.3155232,23.1630746 C24.6979872,21.4121124 26.1328032,19.3931546 28.5243552,19.3931546 C29.5804512,19.3931546 30.3327072,19.7185168 30.7249632,20.5510443 L30.7554912,20.5510443 L30.9717792,19.5626854 L32.9595552,19.5626854 Z M30.1014432,23.1205492 C30.3727392,21.8781795 30.0668832,20.8615654 28.8555552,20.8615654 C27.4423392,20.8615654 26.7329952,22.0479957 26.4890592,23.1630746 C26.2730592,24.1511481 26.5826592,25.3652627 27.7781472,25.3652627 C29.0824992,25.3652627 29.8356192,24.3349492 30.1014432,23.1205492 L30.1014432,23.1205492 Z" id="Fill-28"></path>
                            <path d="M39.4343424,19.9439014 C40.3159104,19.6054106 41.4494784,19.3933544 42.3347904,19.3933544 C44.7727104,19.3933544 45.5811264,20.3112182 45.1125504,22.4571814 L44.9086464,23.3887446 C44.7482304,24.1230928 44.6436864,24.6736398 44.5420224,25.2102019 C44.4371904,25.7604636 44.3568384,26.2687706 44.2802304,26.8335879 L42.4479744,26.8335879 C42.4531584,26.4522863 42.5582784,25.9725198 42.5922624,25.7464787 L42.5614464,25.7464787 C41.9042304,26.5510365 40.7649024,27.0025479 39.8170944,27.0025479 C38.4047424,27.0025479 37.1919744,26.2265306 37.4946624,24.8425998 C37.7319744,23.7560614 38.4450624,23.1204636 39.3142464,22.7674171 C40.1834304,22.4143706 41.2236864,22.3441609 42.0934464,22.3441609 L43.2428544,22.3441609 C43.4988864,21.1722863 43.0107264,20.7772852 41.7841344,20.7772852 C40.8985344,20.7772852 39.9455424,21.0875209 39.1420224,21.5675728 L39.4343424,19.9439014 Z M40.6321344,25.6191879 C41.2691904,25.6191879 41.8215744,25.3654625 42.2339904,24.9698906 C42.6654144,24.5606192 42.8724864,24.0380419 42.9960384,23.4737955 L42.0951744,23.4737955 C41.1632064,23.4737955 39.7505664,23.6145003 39.5066304,24.7301501 C39.3704064,25.3509068 39.8867904,25.6191879 40.6321344,25.6191879 L40.6321344,25.6191879 Z" id="Fill-30"></path>
                        </g>
                        <path d="M105.522048,29.7789717 L107.609472,29.7789717 L107.312832,31.1335057 L105.225984,31.1335057 L105.522048,29.7789717 Z M105.033024,32.0162646 L107.12016,32.0162646 L105.526944,39.309229 L103.439232,39.309229 L105.033024,32.0162646 Z" id="Fill-33"></path>
                        <g id="Group-38" transform="translate(1.152000, 15.902504)">
                            <path d="M68.0830272,20.3592234 C68.6388672,17.818259 68.2036992,15.9685466 65.2378752,15.9685466 C63.0519552,15.9685466 61.5454272,17.3133769 60.9026112,19.0694763 L59.1662592,19.0694763 L58.8843072,20.3583671 L60.5976192,20.3583671 C60.3726912,22.4055801 61.6110912,23.5783109 64.0415232,23.5783109 C65.1592512,23.5783109 66.0719232,23.380525 66.9163392,22.9992234 L67.2521472,21.4606028 C66.3895872,21.8556039 65.4458112,22.1943801 64.4363712,22.1943801 C63.1481472,22.1943801 62.3918592,21.5305271 62.5551552,20.3592234 L68.0830272,20.3592234 Z M65.0598912,17.3519066 C66.2245632,17.3519066 66.5177472,18.142765 66.3792192,19.0603434 L62.8391232,19.0603434 C63.1449792,18.0862547 63.8952192,17.3519066 65.0598912,17.3519066 L65.0598912,17.3519066 Z" id="Fill-34"></path>
                            <path d="M5.298048,6.30686011 L13.195008,6.30686011 C13.988448,2.67678876 13.367808,0.0350763243 9.13104,0.0350763243 C6.007968,0.0350763243 3.85632,1.95614011 2.937024,4.46542443 L0.45648,4.46542443 L0.054432,6.30571849 L2.501568,6.30571849 C2.180736,9.22998227 3.950208,10.9055974 7.421184,10.9055974 C9.017856,10.9055974 10.322496,10.6230461 11.528064,10.0782071 L12.008448,7.88030011 C10.776384,8.44511741 9.428256,8.92916497 7.985952,8.92916497 C6.145056,8.92916497 5.064768,7.98104822 5.298048,6.30686011 M8.876448,2.01150876 C10.540512,2.01150876 10.958688,3.14114335 10.76112,4.45143957 L5.70384,4.45143957 C6.140736,3.06037362 7.212384,2.01150876 8.876448,2.01150876" id="Fill-36"></path>
                        </g>
                    </g>
                </g>
            </g>
        </g>
    </g>
</svg>